PathFileType	4	(X/Y/Z)	51_1_33_p1_0-700.trc
DataRate	CameraRate	NumFrames	NumMarkers	Units	OrigDataRate	OrigDataStartFrame	OrigNumFrames
59.0	59.0	6	27	m	59.0	0	701
Frame#	Time	RHip			RKnee			RAnkle			RBigToe			RSmallToe			RHeel			LHip			LKnee			LAnkle			LBigToe			LSmallToe			LHeel			Neck			Head			Nose			RShoulder			RElbow			RWrist			RThumb			RIndex			RPinky			LShoulder			LElbow			LWrist			LThumb			LIndex			LPinky			
		X1	Y1	Z1	X2	Y2	Z2	X3	Y3	Z3	X4	Y4	Z4	X5	Y5	Z5	X6	Y6	Z6	X7	Y7	Z7	X8	Y8	Z8	X9	Y9	Z9	X10	Y10	Z10	X11	Y11	Z11	X12	Y12	Z12	X13	Y13	Z13	X14	Y14	Z14	X15	Y15	Z15	X16	Y16	Z16	X17	Y17	Z17	X18	Y18	Z18	X19	Y19	Z19	X20	Y20	Z20	X21	Y21	Z21	X22	Y22	Z22	X23	Y23	Z23	X24	Y24	Z24	X25	Y25	Z25	X26	Y26	Z26	X27	Y27	Z27	
0	0.0	0.0887730086913413	0.5350579614519686	0.6023092517527013	0.08959998249048036	0.6100253657172844	1.0510791567383766	0.07974927400753201	0.6606403075286195	1.4623622465975825	0.05539052767042471	0.4782833386401338	1.4904860700911557	0.11994660090904029	0.48459416537991	1.4930330894429182	0.041353502441154245	0.7834525393954751	1.540858943601038	-0.10204476398167461	0.5373836420553967	0.630028521576509	-0.1053612797882474	0.5941898394764756	1.0435351141872602	-0.11308842902572955	0.6499561144286392	1.4477029512175132	-0.09695847666243142	0.4529894424401766	1.4675063638900432	-0.1546941324732843	0.49778840456743434	1.4859686173692448	-0.10802102018727966	0.7159313048194802	1.519016317829621	0.0008992692636245027	0.45774772662943564	0.09094659793736867	0.015146190656544205	0.38684731946060746	-0.1314305888450503	0.010016882145977431	0.35726521218869844	-0.011125027145447467	0.14942634601915092	0.44980881550614965	0.16444904916222694	0.17698034209840743	0.47415859326053406	0.42828124389965466	0.05151951900639475	0.40770481309984635	0.6063037662384884	-0.019885299045083363	0.39158990067483795	0.6723521025881471	-0.04097140213982527	0.4332693995071669	0.6955946373471195	-0.028539437399932262	0.3912539354086092	0.6862052718619224	-0.1529590548481937	0.49609853411295435	0.17296991289969874	-0.16711771625595256	0.44764721351683195	0.4187420384626103	-0.037524447726735875	0.38105784881535326	0.5724547014087172	0.05147674809701942	0.3311946356537855	0.6171995066153209	0.04903219113924577	0.3163598594695246	0.6490254136049173	0.003722776805364408	0.3543549712506909	0.67068414972863
1	0.01694915254237288	0.09710184946205518	0.5329917237087829	0.6050199019044934	0.08863128628985734	0.607916042213654	1.0469371664964997	0.07921158217104612	0.6577137170904624	1.4608597987506242	0.051096700123335524	0.4754076598356891	1.489205568793816	0.1167700692155535	0.4716906533197901	1.486916494503826	0.04070079399277625	0.7808828623925751	1.5349291394035482	-0.09654468114555571	0.5229273195628941	0.6268395747673066	-0.10535481770670514	0.594608007691474	1.0438118125954814	-0.1129962344802569	0.6503986025850101	1.4479845277816794	-0.09715754988118074	0.45323289605622574	1.4674273165105811	-0.15367412537846437	0.49755215103030215	1.4819576279097653	-0.10792822072453438	0.7157112741193795	1.5183987227427784	0.0009210612171377138	0.4577495753121433	0.09103530708706456	0.015140269642872947	0.3866501733547506	-0.13140195615903724	0.009974625606695046	0.357381743923609	-0.011012056390425958	0.14932881004545234	0.4497778348794317	0.1645498010101655	0.17643094821657926	0.4856889802635951	0.43352353035484614	0.046805990938383904	0.4216531677705183	0.6095048622419862	-0.014054160329204155	0.48517478323061103	0.7148349321749109	-0.04546204724759158	0.43278287214304645	0.6994516225902996	-0.02803315482341885	0.3929157238349744	0.6909028894793119	-0.15296016177145952	0.4961616181502543	0.1729499992834362	-0.1670914744816324	0.44775690593907425	0.41871634928774076	-0.037159374791136034	0.3825706125975849	0.5767902974963993	0.0486844395500667	0.31632288358947347	0.6225500338710057	0.04395496767151888	0.3111523535200546	0.6482276792273843	0.004570676053235293	0.35264288582185965	0.6695948130588252
2	0.03389830508474576	0.09661670330237995	0.5333144752636467	0.6084186070287705	0.08854877948614083	0.60793492792743	1.0464753933142052	0.07744978665648651	0.6900355696668635	1.4755157725074421	0.05268723459500098	0.5046585211520535	1.4992285236267715	0.11910680011583363	0.4829286530600197	1.4877424760197822	0.04087419110155242	0.7826955595150418	1.5355531286900947	-0.09695224117059839	0.5210389514597049	0.6219347890948107	-0.10571376167482664	0.5945486482952679	1.0438647701071777	-0.113865514492911	0.6477831671314632	1.4418832842864884	-0.10222846027823865	0.4683631007673022	1.474922880954834	-0.1536529903831572	0.49745740471136113	1.481791146753051	-0.10869010479095344	0.7134150824850717	1.5139331304832853	0.0008821697108019473	0.4578259166018585	0.09102432030296062	0.015156812726805942	0.3867308905529295	-0.13135692889442896	0.010065071720324913	0.357646684547259	-0.014013824655935649	0.14947493491245642	0.4502598798700127	0.16107869379032855	0.17303694591102517	0.4735573174734037	0.43179410043317384	0.04696395382345197	0.4215919668039864	0.6096272094833726	-0.033918767167105804	0.41712167063044386	0.680923524421596	-0.04144492508351288	0.4338716024458007	0.6961817315517365	-0.028016878865689508	0.3929544589621573	0.6911415897551348	-0.15110655426994882	0.5077314289576623	0.16975296955451477	-0.1654031580427983	0.46032390438885357	0.42038750931229185	-0.03229138427149374	0.3698680434961317	0.5741885240056294	0.03961863252624169	0.33962519909443045	0.6253302830858856	0.03611823696577666	0.33428965461689936	0.6560124529923826	0.004706368137076752	0.35337195888080897	0.6698594482293023
3	0.05084745762711865	0.09686213525936735	0.5336953177361835	0.6011903132002621	0.08865536160778996	0.6080546356075329	1.0464480134312675	0.0837947272408053	0.6600952207179034	1.4615112638696053	0.04839263183567671	0.5018275602078314	1.4983426569442317	0.1198719633217316	0.4847956839399833	1.4930180043931842	0.04087278522900904	0.7817692728183723	1.5351929673098386	-0.09648965169415896	0.5231258985815849	0.6268248606218967	-0.1055590329443741	0.5944861322145474	1.043933046796625	-0.113562538542073	0.6477575792987161	1.4418096017007955	-0.09704554179940554	0.45365334483757475	1.4674485162612285	-0.1490263834428096	0.49914640271218863	1.4822790531005874	-0.10965496186934359	0.7138506454993013	1.5190593063868392	0.0008719913805338974	0.4578056600989048	0.0910355044359495	0.01515725456473455	0.38669142504362525	-0.13136482885752002	0.009978953238741907	0.35732943624298635	-0.011026800761587397	0.1493076276704297	0.4499068615408868	0.16449585396857758	0.17638743346980446	0.48601180741244543	0.43357412842195353	0.04696596442747671	0.4215906526421761	0.6096270669374279	-0.031131746417928874	0.4163424366365706	0.6803351179720712	-0.04128435607656308	0.4336525472534964	0.6960025158199963	-0.028211247849281595	0.3932109927897475	0.6910133232518498	-0.1529064000094533	0.4961719458266483	0.17291408758847596	-0.16539141972026206	0.46055900613260103	0.4204754745393919	-0.03231211439571661	0.3699971887789351	0.5741731297906765	0.043942915454690826	0.3287745829605131	0.6221568412122762	0.039727491679496414	0.32377267865477793	0.6534300055742572	0.004502516051499287	0.35403070177763	0.6703694172045706
4	0.06779661016949153	0.096781938522948	0.533687349279696	0.601199244504671	0.08853932200219353	0.6082414669344893	1.0467107228814039	0.08377360606420678	0.6600828931257304	1.4615088418038855	0.052705635735495665	0.5047478246848361	1.4993355047201808	0.1145345085263129	0.498702202462879	1.4958020026397743	0.04087593747931969	0.782310851830429	1.535403759436996	-0.09658954225500432	0.5231077548229776	0.6268034121368063	-0.1056923225977287	0.5946639992302686	1.0440782901720322	-0.11375637521080198	0.6473100320315327	1.4412108609354335	-0.09709109389876357	0.4542581253755037	1.4675235482787226	-0.14904159238817863	0.49904301284694985	1.4820906980870423	-0.11044161723979408	0.7112226040452069	1.514118446193216	0.0008714573330928239	0.45783298864050453	0.09112874611487129	0.015130442988494284	0.3866986745518856	-0.13135078688199003	0.010012495693904236	0.35764690743598987	-0.013976774863446789	0.14930387816826793	0.449864677760079	0.16455655684799964	0.1763103932149214	0.48587536403663817	0.43355256112792523	0.046981576933766526	0.4215473853363841	0.6096332245718081	-0.03143246949468335	0.416636340559679	0.6804721407706912	-0.04655883932103311	0.44677110886135923	0.6991599527594703	-0.028172882713212333	0.39323378455248675	0.6910505005580686	-0.15304146720751768	0.4948098617924087	0.16913603865858542	-0.16540707864482304	0.46035926269282024	0.42043484367125017	-0.032352794988527056	0.3699830975367789	0.5742305337228069	0.04395868865569909	0.32881720764764066	0.6220781144684496	0.039552188242647175	0.32430588036036134	0.6535681796314153	0.0044417912176513905	0.3542378000445045	0.6705104096350814
5	0.0847457627118644	0.09685109777189874	0.5335763362761815	0.6013306100995875	0.08860281983211278	0.6083123376057837	1.0466817940435922	0.0786772590065776	0.6771000646684442	1.469594678293395	0.05271222406314683	0.5047842111636732	1.4992810712660312	0.11453308975079832	0.4986281362875084	1.4957704115418182	0.04083764826702902	0.7820522794810199	1.535309502452556	-0.09653199901258472	0.5230570376006664	0.626751954610209	-0.10560865161340596	0.5944543224483533	1.0438156623279804	-0.11389783262971447	0.6477240203816288	1.441579676718834	-0.10037597539717481	0.48268247405060777	1.4817663368959315	-0.1501172270035998	0.4997900575531985	1.4863614011711934	-0.10930454480821954	0.7111633819581348	1.508843194352036	0.0008725805539762312	0.45776783269380067	0.09105863396391134	0.015130677284071933	0.3867477041725017	-0.13137120142281672	0.010001563438470156	0.35759770727305135	-0.013994287215027231	0.1494580686727124	0.45013988344254763	0.16105186823596393	0.17637737455961075	0.4857948898871701	0.4334669933929732	0.046909072162519425	0.42149528065761055	0.6094912880346143	-0.033768591421601435	0.41739362325557844	0.6811269428143855	-0.046539654628542704	0.4472012976433429	0.6994214295018393	-0.02802635600760231	0.3928931486972046	0.6911020107180128	-0.1530672646714045	0.4948134789119254	0.16914682136137638	-0.16540429258524764	0.46022803257960704	0.4204078524145573	-0.03237129344373307	0.36994022928052694	0.5742448999490312	0.044019743158121516	0.3285528043702957	0.6221997554144639	0.039900276793635	0.3231698465056576	0.6531292571793273	0.004804798645264965	0.35352144643297856	0.670037529987739
